<?xml version="1.0" encoding="iso-8859-1"?>
<!-- Generator: Adobe Illustrator 16.0.0, SVG Export Plug-In . SVG Version: 6.00 Build 0)  -->
<!DOCTYPE svg PUBLIC "-//W3C//DTD SVG 1.1//EN" "http://www.w3.org/Graphics/SVG/1.1/DTD/svg11.dtd">
<svg version="1.1" id="Capa_1" xmlns="http://www.w3.org/2000/svg" xmlns:xlink="http://www.w3.org/1999/xlink" x="0px" y="0px"
	 width="587.455px" height="587.455px" viewBox="0 0 587.455 587.455" style="enable-background:new 0 0 587.455 587.455;"
	 xml:space="preserve">
<g>
	<g>
		<path d="M573.762,256.851c-12.24-14.899-26.121-28.506-41.258-40.443c-15.248-12.025-31.822-22.396-49.262-30.824
			c-17.773-8.59-36.531-15.201-55.75-19.649c-19.74-4.57-40.105-6.887-60.529-6.887c-20.422,0-40.787,2.317-60.529,6.887
			c-19.218,4.449-37.974,11.06-55.75,19.649c-17.439,8.428-34.013,18.799-49.261,30.824c-12.369,9.754-23.897,20.624-34.378,32.401
			l-68.796-64.024c-10.816-10.066-24.848-15.609-39.511-15.609c-14.888,0-29.076,5.613-39.95,15.804
			c-5.687,5.33-10.167,11.633-13.314,18.734c-3.3,7.444-4.974,15.396-4.974,23.631v132.73c0,8.236,1.674,16.188,4.974,23.632
			c3.148,7.102,7.627,13.404,13.313,18.733c10.875,10.192,25.062,15.806,39.95,15.806c14.662,0,28.694-5.544,39.511-15.61
			l68.797-64.023c10.481,11.777,22.01,22.647,34.378,32.401c15.248,12.024,31.821,22.395,49.261,30.823
			c17.774,8.59,36.532,15.201,55.75,19.65c19.742,4.569,40.107,6.887,60.529,6.887c20.424,0,40.789-2.317,60.531-6.887
			c19.217-4.449,37.975-11.061,55.748-19.65c17.439-8.428,34.014-18.799,49.262-30.823c15.137-11.938,29.018-25.545,41.258-40.443
			c8.508-10.356,13.193-23.446,13.193-36.86C586.955,280.297,582.27,267.207,573.762,256.851z M366.963,385.533
			c-69.98,0-132.487-31.996-173.694-82.156c-4.607-5.608-4.607-13.725,0-19.333c41.207-50.16,103.713-82.157,173.694-82.157
			c69.982,0,132.49,31.997,173.695,82.157c4.607,5.608,4.607,13.725,0,19.333C499.453,353.537,436.945,385.533,366.963,385.533z
			 M43.34,360.076v-132.73c0-9.182,7.518-15.331,15.398-15.331c3.593,0,7.261,1.278,10.325,4.13l71.312,66.365
			c6.502,6.052,6.502,16.349,0,22.4l-71.312,66.365c-3.065,2.853-6.732,4.131-10.325,4.131
			C50.859,375.406,43.34,369.257,43.34,360.076z"/>
		<path d="M366.963,428.874c-20.458,0-40.861-2.321-60.642-6.899c-19.255-4.458-38.047-11.082-55.855-19.688
			c-17.472-8.444-34.077-18.834-49.353-30.881c-12.225-9.641-23.696-20.432-34.102-32.08l-68.423,63.676
			c-10.91,10.152-25.062,15.744-39.852,15.744c-15.015,0-29.325-5.661-40.292-15.94c-5.735-5.375-10.253-11.732-13.429-18.896
			C1.688,376.4,0,368.382,0,360.075v-132.73c0-8.307,1.688-16.326,5.017-23.834c3.175-7.162,7.693-13.52,13.43-18.896
			c10.967-10.279,25.276-15.939,40.292-15.939c14.79,0,28.942,5.591,39.852,15.743l68.422,63.677
			c10.403-11.646,21.875-22.438,34.102-32.08c15.277-12.048,31.882-22.438,49.353-30.881c17.809-8.606,36.601-15.229,55.855-19.687
			c39.559-9.156,81.732-9.156,121.283,0c19.256,4.457,38.048,11.08,55.855,19.687c17.473,8.444,34.077,18.834,49.354,30.881
			c15.165,11.959,29.071,25.592,41.335,40.519c8.581,10.445,13.307,23.648,13.307,37.176s-4.726,26.732-13.307,37.178
			c-12.265,14.928-26.172,28.56-41.335,40.519c-15.278,12.048-31.884,22.438-49.354,30.881
			c-17.806,8.605-36.597,15.229-55.854,19.688C407.826,426.553,387.423,428.874,366.963,428.874z M167.079,337.898l0.34,0.382
			c10.457,11.75,22.002,22.631,34.314,32.341c15.219,12.002,31.762,22.353,49.169,30.766c17.74,8.573,36.462,15.173,55.644,19.613
			c39.415,9.123,81.423,9.123,120.836,0c19.184-4.441,37.904-11.04,55.643-19.613c17.405-8.411,33.948-18.763,49.17-30.766
			c15.107-11.914,28.963-25.496,41.181-40.368c8.435-10.268,13.08-23.245,13.08-36.543c0-13.297-4.646-26.275-13.08-36.542
			c-12.217-14.871-26.072-28.453-41.181-40.368c-15.219-12.002-31.763-22.354-49.17-30.766
			c-17.74-8.574-36.462-15.173-55.646-19.612c-39.402-9.122-81.421-9.123-120.833,0c-19.181,4.44-37.903,11.039-55.644,19.612
			c-17.406,8.412-33.949,18.763-49.169,30.766c-12.314,9.711-23.859,20.592-34.314,32.341l-0.34,0.382l-0.375-0.348L97.908,185.15
			c-10.723-9.979-24.634-15.475-39.17-15.475c-14.761,0-28.827,5.565-39.608,15.669c-5.638,5.285-10.079,11.533-13.199,18.572
			C2.659,211.296,1,219.179,1,227.345v132.73c0,8.166,1.659,16.049,4.931,23.43c3.121,7.04,7.562,13.288,13.198,18.57
			c10.782,10.105,24.848,15.671,39.608,15.671c14.536,0,28.446-5.496,39.17-15.477L167.079,337.898z M366.963,386.033
			c-67.644,0-131.093-30.012-174.08-82.339c-4.752-5.785-4.752-14.183,0-19.968c42.987-52.328,106.437-82.339,174.08-82.339
			c67.646,0,131.096,30.012,174.082,82.339c4.752,5.785,4.752,14.183,0,19.968C498.059,356.021,434.608,386.033,366.963,386.033z
			 M366.963,202.387c-67.343,0-130.511,29.878-173.308,81.974c-4.45,5.417-4.45,13.281,0,18.698
			c42.796,52.096,105.965,81.974,173.308,81.974c67.346,0,130.515-29.878,173.309-81.974c4.451-5.417,4.451-13.281,0-18.698
			C497.477,232.266,434.309,202.387,366.963,202.387z M58.738,375.907c-7.646-0.001-15.898-6.054-15.898-15.831v-132.73
			c0-9.778,8.252-15.831,15.898-15.831c3.98,0,7.668,1.475,10.666,4.264l71.312,66.365c3.248,3.023,5.036,7.13,5.036,11.566
			c0,4.437-1.789,8.544-5.036,11.566l-71.312,66.365C66.406,374.433,62.718,375.907,58.738,375.907z M58.738,212.515
			c-9.326,0-14.898,7.541-14.898,14.831v132.73c0,7.289,5.573,14.83,14.898,14.831c3.723,0,7.175-1.382,9.984-3.997l71.312-66.365
			c3.042-2.831,4.718-6.679,4.718-10.834s-1.675-8.003-4.718-10.834l-71.312-66.365C65.914,213.897,62.461,212.515,58.738,212.515z"
			/>
	</g>
	<g>
		<circle cx="443.508" cy="272.291" r="21.42"/>
		<path d="M443.508,294.211c-12.087,0-21.92-9.833-21.92-21.92s9.833-21.92,21.92-21.92s21.92,9.833,21.92,21.92
			S455.595,294.211,443.508,294.211z M443.508,251.371c-11.535,0-20.92,9.385-20.92,20.92s9.385,20.92,20.92,20.92
			s20.92-9.385,20.92-20.92S455.043,251.371,443.508,251.371z"/>
	</g>
</g>
<g>
</g>
<g>
</g>
<g>
</g>
<g>
</g>
<g>
</g>
<g>
</g>
<g>
</g>
<g>
</g>
<g>
</g>
<g>
</g>
<g>
</g>
<g>
</g>
<g>
</g>
<g>
</g>
<g>
</g>
</svg>
